<?xml version="1.0" encoding="utf-8"?>
<!-- Generator: Adobe Illustrator 27.5.0, SVG Export Plug-In . SVG Version: 6.00 Build 0)  -->
<svg version="1.1" xmlns="http://www.w3.org/2000/svg" xmlns:xlink="http://www.w3.org/1999/xlink" x="0px" y="0px"
	 viewBox="0 0 800 800" style="enable-background:new 0 0 800 800;" xml:space="preserve">
<g id="Layer_2" style="display:none;">
</g>
<g id="Layer_1">
	<g>
		<g>
			<radialGradient id="SVGID_1_" cx="398.2797" cy="340.8167" r="113.2603" gradientUnits="userSpaceOnUse">
				<stop  offset="0" style="stop-color:#27AAE1"/>
				<stop  offset="1" style="stop-color:#2B3990"/>
			</radialGradient>
			<path style="fill:url(#SVGID_1_);" d="M399.934,394.305c6.739,0,13.183-1.227,19.15-3.456v-28.621
				c-5.157,4.399-11.848,7.045-19.15,7.045c-16.345,0-29.148-13.232-29.148-29.565c0-1.47-0.11-109.401-0.11-109.401
				c-8.748,2.352-17.165,5.771-25.067,10.182c-8.982,4.999-17.313,11.272-24.774,18.734c-21.135,21.147-32.786,49.254-32.786,79.163
				c0,29.907,11.65,58.014,32.786,79.162c21.147,21.148,49.254,32.788,79.162,32.788c6.47,0,12.839-0.551,19.088-1.619v-23.009
				c-6.149,1.349-12.533,2.058-19.088,2.058c-49.278,0-89.38-40.09-89.38-89.38c0-28.831,13.723-54.524,34.993-70.869
				c0,0-0.282,70.341-0.282,72.191C345.327,369.861,369.769,394.305,399.934,394.305z M342.975,264.085
				c-23.316,17.925-36.682,45.015-36.682,74.3c0,51.667,42.036,93.707,93.704,93.707c4.939,0,9.887-0.396,14.764-1.177v14.1
				c-4.877,0.666-9.825,0.996-14.764,0.996c-28.743,0-55.772-11.188-76.098-31.528c-20.327-20.326-31.526-47.354-31.526-76.098
				c0-28.745,11.199-55.773,31.526-76.1c7.119-7.12,15.131-13.184,23.806-18.023c5.943-3.309,12.189-6.041,18.646-8.161
				c0.025,22.435,0.111,102.344,0.111,103.606c0,18.685,15.009,33.89,33.473,33.89c5.171,0,10.231-1.189,14.826-3.419v17.571
				c-4.791,1.483-9.765,2.23-14.826,2.23c-27.726,0-50.283-22.557-50.283-50.272c0-1.825,0.272-71.468,0.272-72.179l0.035-8.822
				L342.975,264.085z"/>
			
				<radialGradient id="SVGID_00000094616321825414784590000017129632513586314649_" cx="398.2795" cy="340.8175" r="113.26" gradientUnits="userSpaceOnUse">
				<stop  offset="0" style="stop-color:#F9ED32"/>
				<stop  offset="1" style="stop-color:#F15A29"/>
			</radialGradient>
			<path style="fill:url(#SVGID_00000094616321825414784590000017129632513586314649_);" d="M479.155,259.222
				c-21.146-21.135-49.251-32.788-79.159-32.788c-6.421,0-12.755,0.539-18.956,1.593v23.009c6.114-1.335,12.449-2.033,18.956-2.033
				c49.29,0,89.377,40.102,89.377,89.382c0,28.768-13.659,54.413-34.844,70.772c0,0,0-68.971,0-69.546
				c0-30.154-24.442-54.548-54.595-54.548c-6.641,0-12.999,1.2-18.894,3.393v28.487c5.135-4.252,11.714-6.813,18.894-6.813
				c16.333,0,29.564,13.245,29.564,29.577c0,0.54-0.036,106.733-0.036,106.733c8.749-2.378,17.152-5.809,25.067-10.232
				c8.92-4.986,17.203-11.237,24.626-18.661c21.148-21.148,32.787-49.255,32.787-79.162
				C511.942,308.476,500.304,280.369,479.155,259.222z M476.093,414.482c-7.081,7.082-15.045,13.124-23.683,17.949
				c-5.931,3.321-12.18,6.065-18.623,8.199c0-22.2,0.037-100.458,0.037-100.924c0-18.697-15.205-33.902-33.89-33.902
				c-5.073,0-10.046,1.139-14.567,3.295v-17.544c4.716-1.446,9.604-2.168,14.567-2.168c27.715,0,50.271,22.531,50.271,50.223v78.342
				l6.959-5.379c23.219-17.926,36.535-44.967,36.535-74.188c0-51.669-42.037-93.707-93.703-93.707
				c-4.889,0-9.791,0.392-14.629,1.152v-14.091c4.838-0.649,9.74-0.98,14.629-0.98c28.743,0,55.771,11.199,76.097,31.526
				c20.339,20.326,31.523,47.355,31.523,76.1C507.616,367.128,496.432,394.157,476.093,414.482z"/>
			
				<radialGradient id="SVGID_00000149343453721193824290000003587966929369349811_" cx="398.2794" cy="340.8164" r="113.2597" gradientUnits="userSpaceOnUse">
				<stop  offset="0" style="stop-color:#27AAE1"/>
				<stop  offset="1" style="stop-color:#2B3990"/>
			</radialGradient>
			<path style="fill:url(#SVGID_00000149343453721193824290000003587966929369349811_);" d="M399.996,441.684
				c-27.591,0-53.53-10.746-73.048-30.252c-19.504-19.517-30.25-45.455-30.25-73.047c0-27.594,10.746-53.531,30.25-73.05
				c6.837-6.836,14.53-12.657,22.863-17.3c3.934-2.193,8.024-4.128,12.228-5.783c0.036,27.96,0.097,96.304,0.097,97.456
				c0,21.075,16.958,38.216,37.798,38.216c3.54,0,7.082-0.503,10.5-1.483v8.013c-3.418,0.797-6.945,1.201-10.5,1.201
				c-25.349,0-45.957-20.608-45.957-45.947c0-1.703,0.246-64.717,0.27-71.897l0.074-17.9l-13.993,10.757
				c-24.37,18.746-38.361,47.074-38.361,77.718c0,54.057,43.973,98.031,98.029,98.031c3.478,0,6.97-0.194,10.438-0.563v5.316
				C406.966,441.512,403.475,441.684,399.996,441.684L399.996,441.684z"/>
			
				<radialGradient id="SVGID_00000084491481641302651200000006069063509980910487_" cx="398.2801" cy="340.8179" r="113.2593" gradientUnits="userSpaceOnUse">
				<stop  offset="0" style="stop-color:#F9ED32"/>
				<stop  offset="1" style="stop-color:#F15A29"/>
			</radialGradient>
			<path style="fill:url(#SVGID_00000084491481641302651200000006069063509980910487_);" d="M438.149,339.707
				c0-21.074-17.154-38.227-38.215-38.227c-3.454,0-6.91,0.49-10.243,1.409v-8.026c3.344-0.771,6.776-1.151,10.243-1.151
				c25.337,0,45.945,20.584,45.945,45.898v87.139l13.932-10.756c24.284-18.748,38.213-47.039,38.213-77.608
				c0-54.058-43.971-98.032-98.027-98.032c-3.431,0-6.874,0.185-10.305,0.551v-5.317c3.419-0.33,6.874-0.502,10.305-0.502
				c27.591,0,53.528,10.746,73.046,30.251c19.506,19.518,30.25,45.456,30.25,73.05c0,27.592-10.744,53.53-30.25,73.047
				c-6.801,6.801-14.444,12.596-22.74,17.227c-3.92,2.193-8,4.143-12.202,5.799C438.1,434.457,438.149,339.928,438.149,339.707
				L438.149,339.707z"/>
		</g>
		<g>
			<g>
				<g>
					<text transform="matrix(1 0 0 1 205.0806 534.7129)" style="fill:#293339; font-family:'ArialMT'; font-size:66.0584px;">B</text>
				</g>
				<g>
					<text transform="matrix(1 0 0 1 250.9478 534.7129)" style="fill:#293339; font-family:'ArialMT'; font-size:66.0584px;">E</text>
				</g>
				<g>
					<text transform="matrix(1 0 0 1 290.5239 534.7129)" style="fill:#293339; font-family:'ArialMT'; font-size:66.0584px;">T</text>
				</g>
				<g>
					<text transform="matrix(1 0 0 1 324.4888 534.7129)"><tspan x="0" y="0" style="fill:#293339; font-family:'ArialMT'; font-size:66.0584px; letter-spacing:2;">A</tspan><tspan x="46.637" y="0" style="fill:#293339; font-family:'ArialMT'; font-size:66.0584px; letter-spacing:1;"> </tspan><tspan x="66.443" y="0" style="fill:#293339; font-family:'ArialMT'; font-size:66.0584px; letter-spacing:-1;">P</tspan><tspan x="109.447" y="0" style="fill:#293339; font-family:'ArialMT'; font-size:66.0584px;">O</tspan><tspan x="161.16" y="0" style="fill:#293339; font-family:'ArialMT'; font-size:66.0584px; letter-spacing:2;">I</tspan><tspan x="181.692" y="0" style="fill:#293339; font-family:'ArialMT'; font-size:66.0584px; letter-spacing:2;">N</tspan><tspan x="231.511" y="0" style="fill:#293339; font-family:'ArialMT'; font-size:66.0584px;">T</tspan></text>
				</g>
			</g>
			<g>
				<g>
					
						<text transform="matrix(1 0 0 1 209.832 565.3809)" style="fill:#293339; font-family:'MyriadPro-Regular'; font-size:32.0855px;">THIS</text>
				</g>
				<g>
				</g>
				<g>
					
						<text transform="matrix(1 0 0 1 275.8315 565.3809)" style="fill:#293339; font-family:'MyriadPro-Regular'; font-size:32.0855px;">WILL BE</text>
				</g>
				<g>
				</g>
				<g>
					
						<text transform="matrix(1 0 0 1 386.2349 565.3809)" style="fill:#293339; font-family:'MyriadPro-Regular'; font-size:32.0855px;">Y</text>
				</g>
				<g>
					
						<text transform="matrix(1 0 0 1 402.4375 565.3809)" style="fill:#293339; font-family:'MyriadPro-Regular'; font-size:32.0855px;">OUR</text>
				</g>
				<g>
				</g>
				<g>
					
						<text transform="matrix(1 0 0 1 468.0508 565.3809)" style="fill:#293339; font-family:'MyriadPro-Regular'; font-size:32.0855px;">T</text>
				</g>
				<g>
					
						<text transform="matrix(1 0 0 1 481.5918 565.3809)" style="fill:#293339; font-family:'MyriadPro-Regular'; font-size:32.0855px;">A</text>
				</g>
				<g>
					
						<text transform="matrix(1 0 0 1 500.7461 565.3809)" style="fill:#293339; font-family:'MyriadPro-Regular'; font-size:32.0855px;">G LINE</text>
				</g>
			</g>
		</g>
	</g>
</g>
</svg>
